<svg width="173" height="25" viewBox="0 0 173 25" fill="none" xmlns="http://www.w3.org/2000/svg">
<path d="M7.072 19.84V1.088H11.04V19.872C11.04 21.408 10.496 22.5387 9.408 23.264C8.34133 23.9893 7.08267 24.352 5.632 24.352C4.18133 24.352 2.912 23.9893 1.824 23.264C0.736 22.5387 0.192 21.408 0.192 19.872V15.904H4.16V19.84C4.16 20.2453 4.29867 20.5547 4.576 20.768C4.87467 20.96 5.22667 21.056 5.632 21.056C6.016 21.056 6.34667 20.96 6.624 20.768C6.92267 20.5547 7.072 20.2453 7.072 19.84ZM28.8453 24H24.9733L23.9493 22.592C22.9253 23.7653 21.5813 24.352 19.9173 24.352C18.1039 24.352 16.6426 23.872 15.5333 22.912C14.4453 21.952 13.9013 20.736 13.9013 19.264V16.288C13.9013 14.7093 14.7013 13.312 16.3013 12.096C15.2559 10.9867 14.7333 9.824 14.7333 8.608V5.568C14.7333 4.05333 15.2026 2.86933 16.1413 2.016C17.1013 1.14133 18.4666 0.703999 20.2373 0.703999C21.9866 0.703999 23.3306 1.12 24.2693 1.952C25.2079 2.784 25.6773 3.872 25.6773 5.216V8.16H21.7733V5.344C21.7733 4.96 21.6346 4.65067 21.3573 4.416C21.0799 4.18133 20.7173 4.064 20.2693 4.064C19.1813 4.064 18.6373 4.68267 18.6373 5.92V8.512C18.6373 9.10933 18.9893 9.83467 19.6933 10.688L22.1573 14.144V11.232H27.9493V14.528H25.6453V19.008C26.3706 19.9893 27.4373 21.4613 28.8453 23.424V24ZM21.7413 19.52C21.3573 18.9653 20.2906 17.4827 18.5413 15.072C18.0506 15.4133 17.8053 15.904 17.8053 16.544V19.264C17.8053 19.84 17.9973 20.288 18.3813 20.608C18.7866 20.9067 19.2879 21.056 19.8853 21.056C20.7386 21.056 21.3573 20.544 21.7413 19.52ZM44.223 24H40.447L36.447 14.752L35.295 16.768V24H31.327V1.088H35.295V9.76C37.471 5.92 39.0923 3.02933 40.159 1.088H43.967V1.664L38.527 11.104L44.223 23.424V24ZM59.6528 19.52V15.904H63.6208V19.616C63.6208 21.216 63.0341 22.4107 61.8608 23.2C60.7088 23.968 59.3541 24.352 57.7968 24.352C56.2181 24.352 54.8421 23.968 53.6688 23.2C52.5168 22.4107 51.9408 21.216 51.9408 19.616V5.472C51.9408 3.85067 52.5168 2.656 53.6688 1.888C54.8421 1.09867 56.2181 0.703999 57.7968 0.703999C59.3541 0.703999 60.7088 1.09867 61.8608 1.888C63.0341 2.656 63.6208 3.85067 63.6208 5.472V9.216H59.6528V5.6C59.6528 5.10933 59.4608 4.74667 59.0768 4.512C58.7141 4.256 58.2874 4.128 57.7968 4.128C57.2634 4.128 56.8048 4.24533 56.4208 4.48C56.0581 4.71467 55.8768 5.088 55.8768 5.6V19.52C55.8768 20.0107 56.0688 20.384 56.4528 20.64C56.8368 20.8747 57.2848 20.992 57.7968 20.992C58.2874 20.992 58.7141 20.8747 59.0768 20.64C59.4608 20.384 59.6528 20.0107 59.6528 19.52ZM79.371 24H75.563C75.0937 21.76 74.7843 20.2347 74.635 19.424H69.771L68.875 24H65.067V23.424L70.315 1.088H74.123L79.371 23.424V24ZM73.963 16.032L72.203 7.232C71.7123 9.57867 71.1257 12.512 70.443 16.032H73.963ZM88.4578 24H81.5458V1.088H87.9778C89.4711 1.088 90.6978 1.504 91.6578 2.336C92.6178 3.168 93.0978 4.256 93.0978 5.6V8.416C93.0978 9.76 92.4258 10.9653 91.0818 12.032C92.8738 12.9067 93.7698 14.2293 93.7698 16V18.816C93.7698 20.288 93.3004 21.5253 92.3618 22.528C91.4231 23.5093 90.1218 24 88.4578 24ZM89.8018 18.688V15.872C89.8018 15.2747 89.6311 14.784 89.2898 14.4C88.9484 14.016 88.4471 13.824 87.7858 13.824H85.5138V20.672H87.7858C88.4471 20.672 88.9484 20.4907 89.2898 20.128C89.6311 19.744 89.8018 19.264 89.8018 18.688ZM89.2258 8.864V6.304C89.2258 5.088 88.7138 4.48 87.6898 4.48H85.5138V10.56H87.6898C88.2018 10.56 88.5858 10.4 88.8418 10.08C89.0978 9.73867 89.2258 9.33333 89.2258 8.864ZM100.639 24H96.6708V1.088H100.639V24ZM117.153 24H113.729L108.353 10.56C108.353 11.2853 108.374 12.7893 108.417 15.072C108.46 17.3333 108.481 19.0827 108.481 20.32V24H104.545V1.088H108.001L113.377 14.56C113.377 13.856 113.356 12.3627 113.313 10.08C113.27 7.79733 113.249 6.03733 113.249 4.8V1.088H117.153V24ZM131.349 20.576V24H121.077V1.088H131.349V4.512H125.045V10.464H130.229V13.888H125.045V20.576H131.349ZM140.278 24H136.342V4.512H132.598V1.088H143.99V4.512H140.278V24ZM158.49 24H154.426L151.834 14.88H150.106V24H146.202V1.088H152.474C154.202 1.088 155.557 1.54667 156.538 2.464C157.541 3.38133 158.042 4.71467 158.042 6.464V9.28C158.042 11.4773 157.157 13.088 155.386 14.112C155.727 15.1573 156.239 16.7147 156.922 18.784C157.626 20.8533 158.149 22.4 158.49 23.424V24ZM154.106 9.344V6.432C154.106 5.94133 153.957 5.504 153.658 5.12C153.359 4.71467 152.943 4.512 152.41 4.512H150.106V11.456H152.41C152.943 11.456 153.359 11.2427 153.658 10.816C153.957 10.368 154.106 9.87733 154.106 9.344ZM168.298 24H164.394V15.072L159.69 1.664V1.088H163.242C164.82 6.10133 165.855 9.344 166.346 10.816C167.924 5.80267 168.959 2.56 169.45 1.088H173.002V1.664L168.298 15.104V24Z" fill="#721011"/>
</svg>
