<svg width="22" height="22" viewBox="0 0 22 22" fill="none" xmlns="http://www.w3.org/2000/svg">
<path d="M2.83333 17.825C3.88333 16.7944 5.10347 15.9826 6.49375 15.3896C7.88403 14.7965 9.38611 14.5 11 14.5C12.6139 14.5 14.116 14.7965 15.5062 15.3896C16.8965 15.9826 18.1167 16.7944 19.1667 17.825V2.83333H2.83333V17.825ZM11 12.1667C12.1278 12.1667 13.0903 11.7681 13.8875 10.9708C14.6847 10.1736 15.0833 9.21111 15.0833 8.08333C15.0833 6.95556 14.6847 5.99306 13.8875 5.19583C13.0903 4.39861 12.1278 4 11 4C9.87222 4 8.90972 4.39861 8.1125 5.19583C7.31528 5.99306 6.91667 6.95556 6.91667 8.08333C6.91667 9.21111 7.31528 10.1736 8.1125 10.9708C8.90972 11.7681 9.87222 12.1667 11 12.1667ZM2.83333 21.5C2.19167 21.5 1.64236 21.2715 1.18542 20.8146C0.728472 20.3576 0.5 19.8083 0.5 19.1667V2.83333C0.5 2.19167 0.728472 1.64236 1.18542 1.18542C1.64236 0.728472 2.19167 0.5 2.83333 0.5H19.1667C19.8083 0.5 20.3576 0.728472 20.8146 1.18542C21.2715 1.64236 21.5 2.19167 21.5 2.83333V19.1667C21.5 19.8083 21.2715 20.3576 20.8146 20.8146C20.3576 21.2715 19.8083 21.5 19.1667 21.5H2.83333ZM4.84583 19.1667H17.1542C16.2986 18.4083 15.3313 17.8299 14.2521 17.4312C13.1729 17.0326 12.0889 16.8333 11 16.8333C9.91111 16.8333 8.81736 17.0326 7.71875 17.4312C6.62014 17.8299 5.6625 18.4083 4.84583 19.1667ZM11 9.83333C10.5139 9.83333 10.1007 9.66319 9.76042 9.32292C9.42014 8.98264 9.25 8.56944 9.25 8.08333C9.25 7.59722 9.42014 7.18403 9.76042 6.84375C10.1007 6.50347 10.5139 6.33333 11 6.33333C11.4861 6.33333 11.8993 6.50347 12.2396 6.84375C12.5799 7.18403 12.75 7.59722 12.75 8.08333C12.75 8.56944 12.5799 8.98264 12.2396 9.32292C11.8993 9.66319 11.4861 9.83333 11 9.83333Z" fill="white"/>
</svg>
