<svg width="32" height="32" viewBox="0 0 32 32" fill="none" xmlns="http://www.w3.org/2000/svg">
<path d="M16.0048 2.66667C13.6916 2.66589 11.418 3.26694 9.40733 4.41077C7.39669 5.5546 5.71823 7.20185 4.53687 9.19067C3.35551 11.1795 2.71189 13.4414 2.66926 15.7543C2.62662 18.0671 3.18644 20.3512 4.2937 22.3822L2.71593 27.9156C2.66041 28.1099 2.65893 28.3156 2.71165 28.5107C2.76437 28.7058 2.86929 28.8828 3.01512 29.0227C3.16094 29.1625 3.34216 29.26 3.53926 29.3046C3.73636 29.3491 3.94188 29.3391 4.1337 29.2756L9.32926 27.5444C11.1001 28.5677 13.0825 29.1699 15.1233 29.3045C17.1641 29.439 19.2084 29.1022 21.0982 28.3203C22.988 27.5383 24.6726 26.3321 26.0217 24.7949C27.3707 23.2578 28.3481 21.4309 28.8781 19.4555C29.4082 17.4802 29.4767 15.4094 29.0784 13.4034C28.6801 11.3974 27.8257 9.50984 26.5812 7.88685C25.3367 6.26385 23.7356 4.9489 21.9016 4.04371C20.0676 3.13851 18.05 2.66735 16.0048 2.66667ZM11.5604 13.7778C11.5604 13.4831 11.6774 13.2005 11.8858 12.9921C12.0942 12.7837 12.3768 12.6667 12.6715 12.6667H19.3381C19.6328 12.6667 19.9154 12.7837 20.1238 12.9921C20.3322 13.2005 20.4493 13.4831 20.4493 13.7778C20.4493 14.0725 20.3322 14.3551 20.1238 14.5635C19.9154 14.7718 19.6328 14.8889 19.3381 14.8889H12.6715C12.3768 14.8889 12.0942 14.7718 11.8858 14.5635C11.6774 14.3551 11.5604 14.0725 11.5604 13.7778ZM12.6715 17.1111H17.1159C17.4106 17.1111 17.6932 17.2282 17.9016 17.4365C18.11 17.6449 18.227 17.9275 18.227 18.2222C18.227 18.5169 18.11 18.7995 17.9016 19.0079C17.6932 19.2163 17.4106 19.3333 17.1159 19.3333H12.6715C12.3768 19.3333 12.0942 19.2163 11.8858 19.0079C11.6774 18.7995 11.5604 18.5169 11.5604 18.2222C11.5604 17.9275 11.6774 17.6449 11.8858 17.4365C12.0942 17.2282 12.3768 17.1111 12.6715 17.1111Z" fill="url(#paint0_linear_198_940)"/>
<defs>
<linearGradient id="paint0_linear_198_940" x1="23.5007" y1="-0.250001" x2="0.375731" y2="27.875" gradientUnits="userSpaceOnUse">
<stop stop-color="#721011"/>
<stop offset="1" stop-color="#D81E20"/>
</linearGradient>
</defs>
</svg>
