<svg width="48" height="48" viewBox="0 0 48 48" fill="none" xmlns="http://www.w3.org/2000/svg">
    <path fill-rule="evenodd" clip-rule="evenodd" d="M9.6 12C6.94904 12 4.8 14.149 4.8 16.8V36C4.8 38.6509 6.94904 40.7999 9.6 40.7999H38.4C41.051 40.7999 43.2 38.6509 43.2 36V16.8C43.2 14.149 41.051 12 38.4 12H34.5941C33.9576 12 33.3471 11.7471 32.8971 11.297L30.2059 8.60584C29.3057 7.70566 28.0848 7.19995 26.8118 7.19995H21.1882C19.9152 7.19995 18.6943 7.70566 17.7941 8.60584L15.1029 11.297C14.6529 11.7471 14.0424 12 13.4059 12H9.6ZM24 33.5999C27.9765 33.5999 31.2 30.3764 31.2 26.4C31.2 22.4235 27.9765 19.2 24 19.2C20.0236 19.2 16.8 22.4235 16.8 26.4C16.8 30.3764 20.0236 33.5999 24 33.5999Z" fill="#4361EE"/>
</svg>
