<svg width="12" height="12" viewBox="0 0 12 12" fill="none" xmlns="http://www.w3.org/2000/svg">
<path d="M2.76469 3.353H2.17646C1.86445 3.353 1.56521 3.47695 1.34458 3.69757C1.12395 3.9182 1 4.21744 1 4.52946V9.82354C1 10.1356 1.12395 10.4348 1.34458 10.6554C1.56521 10.8761 1.86445 11 2.17646 11H7.47055C7.78257 11 8.0818 10.8761 8.30243 10.6554C8.52306 10.4348 8.64701 10.1356 8.64701 9.82354V9.23531" stroke="#777777" stroke-linecap="round" stroke-linejoin="round"/>
<path d="M8.05854 2.17653L9.82323 3.94122M10.6379 3.10887C10.8696 2.8772 10.9998 2.56298 10.9998 2.23535C10.9998 1.90771 10.8696 1.5935 10.6379 1.36183C10.4063 1.13015 10.092 1 9.76441 1C9.43678 1 9.12256 1.13015 8.89089 1.36183L3.94092 6.29415V8.05884H5.70561L10.6379 3.10887Z" stroke="#777777" stroke-linecap="round" stroke-linejoin="round"/>
</svg>
