<svg xmlns="http://www.w3.org/2000/svg" width="25" height="25" viewBox="0 0 25 25" fill="none">
    <mask id="mask0_1051_350" style="mask-type:alpha" maskUnits="userSpaceOnUse" x="0" y="0" width="25" height="25">
        <rect x="0.5" y="0.709229" width="24" height="24" fill="#D9D9D9"/>
    </mask>
    <g mask="url(#mask0_1051_350)">
        <path d="M11.5 10.7092C12.05 10.7092 12.5208 10.5134 12.9125 10.1217C13.3042 9.73006 13.5 9.25923 13.5 8.70923C13.5 8.15923 13.3042 7.6884 12.9125 7.29673C12.5208 6.90506 12.05 6.70923 11.5 6.70923C10.95 6.70923 10.4792 6.90506 10.0875 7.29673C9.69583 7.6884 9.5 8.15923 9.5 8.70923C9.5 9.25923 9.69583 9.73006 10.0875 10.1217C10.4792 10.5134 10.95 10.7092 11.5 10.7092ZM11.5 14.7092C12.25 14.7092 12.9542 14.5509 13.6125 14.2342C14.2708 13.9176 14.8417 13.4676 15.325 12.8842C14.7417 12.5009 14.1292 12.2092 13.4875 12.0092C12.8458 11.8092 12.1833 11.7092 11.5 11.7092C10.8167 11.7092 10.1542 11.8092 9.5125 12.0092C8.87083 12.2092 8.25833 12.5009 7.675 12.8842C8.15833 13.4676 8.72917 13.9176 9.3875 14.2342C10.0458 14.5509 10.75 14.7092 11.5 14.7092ZM21.1 21.7092L16.4 17.0092C15.7167 17.5426 14.9625 17.9592 14.1375 18.2592C13.3125 18.5592 12.4333 18.7092 11.5 18.7092C9.26667 18.7092 7.375 17.9342 5.825 16.3842C4.275 14.8342 3.5 12.9426 3.5 10.7092C3.5 8.47589 4.275 6.58423 5.825 5.03423C7.375 3.48423 9.26667 2.70923 11.5 2.70923C13.7333 2.70923 15.625 3.48423 17.175 5.03423C18.725 6.58423 19.5 8.47589 19.5 10.7092C19.5 11.6426 19.35 12.5217 19.05 13.3467C18.75 14.1717 18.3333 14.9259 17.8 15.6092L22.5 20.3092L21.1 21.7092Z" fill="#727272"/>
    </g>
</svg>