<svg width="14" height="14" viewBox="0 0 14 14" fill="none" xmlns="http://www.w3.org/2000/svg">
    <path fill-rule="evenodd" clip-rule="evenodd" d="M0 1C0 0.447715 0.447715 0 1 0H13C13.5523 0 14 0.447715 14 1C14 1.55228 13.5523 2 13 2H1C0.447715 2 0 1.55228 0 1ZM0 5C0 4.44772 0.447715 4 1 4H13C13.5523 4 14 4.44772 14 5C14 5.55228 13.5523 6 13 6H1C0.447715 6 0 5.55228 0 5ZM0 9C0 8.44772 0.447715 8 1 8H13C13.5523 8 14 8.44772 14 9C14 9.55229 13.5523 10 13 10H1C0.447715 10 0 9.55229 0 9ZM0 13C0 12.4477 0.447715 12 1 12H13C13.5523 12 14 12.4477 14 13C14 13.5523 13.5523 14 13 14H1C0.447715 14 0 13.5523 0 13Z" fill="#565656"/>
</svg>
