<svg width="25" height="25" viewBox="0 0 25 25" fill="none" xmlns="http://www.w3.org/2000/svg">
<path d="M7.5 11.2471C7.5 10.9156 7.63169 10.5977 7.86611 10.3633C8.10053 10.1288 8.41848 9.99714 8.75 9.99714H16.25C16.5815 9.99714 16.8995 10.1288 17.1339 10.3633C17.3683 10.5977 17.5 10.9156 17.5 11.2471C17.5 11.5787 17.3683 11.8966 17.1339 12.131C16.8995 12.3654 16.5815 12.4971 16.25 12.4971H8.75C8.41848 12.4971 8.10053 12.3654 7.86611 12.131C7.63169 11.8966 7.5 11.5787 7.5 11.2471ZM8.75 14.9971C8.41848 14.9971 8.10053 15.1288 7.86611 15.3632C7.63169 15.5977 7.5 15.9156 7.5 16.2471C7.5 16.5787 7.63169 16.8966 7.86611 17.131C8.10053 17.3654 8.41848 17.4971 8.75 17.4971H13.75C14.0815 17.4971 14.3995 17.3654 14.6339 17.131C14.8683 16.8966 15 16.5787 15 16.2471C15 15.9156 14.8683 15.5977 14.6339 15.3632C14.3995 15.1288 14.0815 14.9971 13.75 14.9971H8.75ZM1.40838e-06 12.4971C0.000628351 9.75663 0.901854 7.09229 2.56498 4.91413C4.2281 2.73598 6.56095 1.16474 9.2045 0.442238C11.848 -0.280266 14.6558 -0.113996 17.1956 0.915461C19.7354 1.94492 21.8665 3.78051 23.2609 6.13972C24.6553 8.49894 25.2358 11.251 24.913 13.9725C24.5901 16.6939 23.3819 19.2338 21.4742 21.2013C19.5666 23.1688 17.0652 24.4549 14.355 24.8616C11.6448 25.2683 8.87614 24.773 6.475 23.4521L1.615 24.9321C1.39823 24.9982 1.16758 25.004 0.947733 24.9491C0.727885 24.8942 0.527106 24.7805 0.36687 24.6203C0.206635 24.46 0.0929712 24.2592 0.0380381 24.0394C-0.0168951 23.8195 -0.0110317 23.5889 0.0550013 23.3721L1.535 18.5046C0.526912 16.6628 -0.000995171 14.5968 1.40838e-06 12.4971ZM12.5 2.49714C10.7248 2.49699 8.98164 2.96938 7.44944 3.86578C5.91724 4.76218 4.65128 6.05029 3.78157 7.59779C2.91186 9.1453 2.46976 10.8964 2.50068 12.6713C2.5316 14.4462 3.03442 16.1809 3.9575 17.6971C4.04913 17.8478 4.10786 18.0161 4.12983 18.191C4.15181 18.3659 4.13653 18.5435 4.085 18.7121L3.1275 21.8596L6.27 20.9021C6.43914 20.8506 6.6173 20.8355 6.7927 20.858C6.96809 20.8804 7.13674 20.9397 7.2875 21.0321C8.60544 21.8368 10.0918 22.3253 11.6302 22.4594C13.1685 22.5934 14.717 22.3694 16.1543 21.8049C17.5915 21.2404 18.8786 20.3507 19.9144 19.2055C20.9503 18.0604 21.7069 16.6909 22.125 15.2044C22.543 13.7179 22.6111 12.1547 22.324 10.6375C22.0368 9.12027 21.4022 7.69016 20.4698 6.45924C19.5375 5.22831 18.3327 4.23003 16.95 3.54263C15.5673 2.85523 14.0442 2.49739 12.5 2.49714Z" fill="#F1BD19"/>
</svg>
