<svg xmlns="http://www.w3.org/2000/svg" width="32" height="32" viewBox="0 0 32 32" fill="none">
    <path fill-rule="evenodd" clip-rule="evenodd" d="M2.00001 11.0765C1.97939 7.9298 26.9464 -0.688958 30.2655 2.82939C33.5048 6.263 24.4442 30.6338 21.3561 30.4994C19.4187 30.4152 18.5687 26.6457 16.8756 19.0671C16.7599 18.5494 16.6385 18.148 16.4779 17.8271C16.4869 17.8188 16.4958 17.8104 16.5045 17.8018L21.8383 12.5518C22.2811 12.1159 22.2867 11.4036 21.8509 10.9608C21.415 10.518 20.7027 10.5124 20.2599 10.9482L14.9262 16.1982C14.8192 16.3035 14.7377 16.425 14.6818 16.5549C14.6062 16.5322 14.5278 16.5096 14.4463 16.4871C13.9258 16.3434 13.1432 16.1865 12.2189 16.0011C8.35602 15.2266 2.01888 13.9559 2.00001 11.0765Z" fill="white"/>
</svg>