<svg width="16" height="16" viewBox="0 0 16 16" fill="none" xmlns="http://www.w3.org/2000/svg">
    <path d="M8.00002 5.29176C6.50425 5.29176 5.29169 6.50432 5.29169 8.00009C5.29169 9.49586 6.50425 10.7084 8.00002 10.7084C9.49579 10.7084 10.7084 9.49586 10.7084 8.00009C10.7084 6.50432 9.49579 5.29176 8.00002 5.29176Z" fill="#565656"/>
    <path fill-rule="evenodd" clip-rule="evenodd" d="M8.56662 0.338223C8.21426 0.142468 7.78582 0.142467 7.43346 0.338223L1.43346 3.67156C1.06308 3.87732 0.833374 4.26771 0.833374 4.69141V11.3088C0.833374 11.7325 1.06308 12.1229 1.43346 12.3287L7.43346 15.662C7.78582 15.8577 8.21427 15.8577 8.56663 15.662L14.5666 12.3287C14.937 12.1229 15.1667 11.7325 15.1667 11.3088V4.69141C15.1667 4.26771 14.937 3.87732 14.5666 3.67156L8.56662 0.338223ZM4.04169 8.00009C4.04169 5.81396 5.81389 4.04176 8.00002 4.04176C10.1861 4.04176 11.9584 5.81396 11.9584 8.00009C11.9584 10.1862 10.1861 11.9584 8.00002 11.9584C5.81389 11.9584 4.04169 10.1862 4.04169 8.00009Z" fill="#565656"/>
</svg>
