<svg width="24" height="24" viewBox="0 0 24 24" fill="none" xmlns="http://www.w3.org/2000/svg">
<path d="M7.16663 23.6668C6.52496 23.6668 5.97565 23.4384 5.51871 22.9814C5.06176 22.5245 4.83329 21.9752 4.83329 21.3335C4.83329 20.6918 5.06176 20.1425 5.51871 19.6856C5.97565 19.2286 6.52496 19.0002 7.16663 19.0002C7.80829 19.0002 8.3576 19.2286 8.81454 19.6856C9.27149 20.1425 9.49996 20.6918 9.49996 21.3335C9.49996 21.9752 9.27149 22.5245 8.81454 22.9814C8.3576 23.4384 7.80829 23.6668 7.16663 23.6668ZM18.8333 23.6668C18.1916 23.6668 17.6423 23.4384 17.1854 22.9814C16.7284 22.5245 16.5 21.9752 16.5 21.3335C16.5 20.6918 16.7284 20.1425 17.1854 19.6856C17.6423 19.2286 18.1916 19.0002 18.8333 19.0002C19.475 19.0002 20.0243 19.2286 20.4812 19.6856C20.9382 20.1425 21.1666 20.6918 21.1666 21.3335C21.1666 21.9752 20.9382 22.5245 20.4812 22.9814C20.0243 23.4384 19.475 23.6668 18.8333 23.6668ZM6.17496 5.00016L8.97496 10.8335H17.1416L20.35 5.00016H6.17496ZM5.06663 2.66683H22.275C22.7222 2.66683 23.0625 2.86614 23.2958 3.26475C23.5291 3.66336 23.5388 4.06683 23.325 4.47516L19.1833 11.9418C18.9694 12.3307 18.6826 12.6321 18.3229 12.846C17.9632 13.0599 17.5694 13.1668 17.1416 13.1668H8.44996L7.16663 15.5002H21.1666V17.8335H7.16663C6.29163 17.8335 5.63052 17.4495 5.18329 16.6814C4.73607 15.9134 4.71663 15.1502 5.12496 14.3918L6.69996 11.5335L2.49996 2.66683H0.166626V0.333496H3.95829L5.06663 2.66683Z" fill="white"/>
</svg>
