<svg width="12" height="13" viewBox="0 0 12 13" fill="none" xmlns="http://www.w3.org/2000/svg">
<path fill-rule="evenodd" clip-rule="evenodd" d="M2.11 2.7035L3.05667 3.62633C2.30773 4.21815 1.76552 5.02185 1.50479 5.92666C1.24405 6.83146 1.27761 7.79283 1.60086 8.67826C1.9241 9.56369 2.52111 10.3296 3.3096 10.8704C4.09808 11.4112 5.03923 11.7003 6.00333 11.6978C6.96561 11.6965 7.90394 11.4053 8.68982 10.8639C9.47569 10.3226 10.0707 9.55768 10.3933 8.67393C10.716 7.79018 10.7504 6.83081 10.4921 5.92721C10.2337 5.02361 9.69508 4.21996 8.95 3.62633L9.89667 2.7035C10.8296 3.48021 11.4958 4.51704 11.8056 5.67425C12.1154 6.83146 12.0538 8.05343 11.6292 9.17548C11.2045 10.2975 10.4372 11.2657 9.43073 11.9495C8.42422 12.6334 7.22685 13 6 13C4.77315 13 3.57578 12.6334 2.56927 11.9495C1.56276 11.2657 0.79548 10.2975 0.370848 9.17548C-0.0537843 8.05343 -0.115363 6.83146 0.194412 5.67425C0.504186 4.51704 1.17042 3.48021 2.10333 2.7035H2.11ZM5.33667 0H6.67V5.19904H5.33667V0Z" fill="black"/>
</svg>
