<svg width="20" height="20" viewBox="0 0 20 20" fill="none" xmlns="http://www.w3.org/2000/svg">
    <path d="M10.7207 2.49688C10.3996 1.94342 9.6003 1.94342 9.27915 2.49688L7.01744 6.39464C6.85879 6.66804 6.58459 6.85462 6.27203 6.90182L2.03344 7.54201C1.32154 7.64954 1.07182 8.54838 1.62624 9.00771L4.78382 11.6237C5.0761 11.8659 5.21354 12.2479 5.14253 12.6207L4.31656 16.9583C4.18599 17.644 4.90581 18.1768 5.52344 17.8516L9.51461 15.7501C9.81839 15.5901 10.1815 15.5901 10.4852 15.7501L14.4764 17.8516C15.094 18.1768 15.8139 17.644 15.6833 16.9583L14.8573 12.6207C14.7863 12.2479 14.9238 11.8659 15.216 11.6237L18.3736 9.00771C18.928 8.54838 18.6783 7.64954 17.9664 7.54201L13.7278 6.90183C13.4153 6.85462 13.1411 6.66804 12.9824 6.39464L10.7207 2.49688Z" fill="#565656"/>
</svg>
