<svg width="20" height="20" viewBox="0 0 20 20" fill="none" xmlns="http://www.w3.org/2000/svg">
<path d="M2.28547 6.34374C1.11311 6.65832 0.25 7.72836 0.25 9V12C0.25 13.5188 1.48122 14.75 3 14.75H5.5C5.91421 14.75 6.25 14.4142 6.25 14V7C6.25 6.58579 5.91421 6.25 5.5 6.25H3.81483C4.24399 3.78002 6.75862 1.75 10 1.75C13.2414 1.75 15.756 3.78002 16.1852 6.25H14.5C14.0858 6.25 13.75 6.58579 13.75 7V14C13.75 14.4142 14.0858 14.75 14.5 14.75H16.163C15.8244 16.1834 14.5368 17.25 13 17.25H11.8546C11.5579 16.517 10.8393 16 10 16C8.89543 16 8 16.8954 8 18C8 19.1046 8.89543 20 10 20C10.8393 20 11.5579 19.483 11.8546 18.75H13C15.3998 18.75 17.3839 16.9704 17.7047 14.6589C18.882 14.3477 19.75 13.2752 19.75 12V9C19.75 7.72836 18.8869 6.65832 17.7145 6.34375C17.3331 2.83959 13.9262 0.25 10 0.25C6.0738 0.25 2.66693 2.83959 2.28547 6.34374Z" fill="#565656"/>
</svg>
