<svg xmlns="http://www.w3.org/2000/svg" width="25" height="25" viewBox="0 0 25 25" fill="none">
    <mask id="mask0_1051_368" style="mask-type:alpha" maskUnits="userSpaceOnUse" x="0" y="0" width="25" height="25">
        <rect x="0.5" y="0.709229" width="24" height="24" fill="#D9D9D9"/>
    </mask>
    <g mask="url(#mask0_1051_368)">
        <path d="M7.5 17.7092H9.6L15.6 11.7592L13.45 9.60923L7.5 15.5592V17.7092ZM16.3 11.0592L17.35 9.95923C17.45 9.85923 17.5 9.74256 17.5 9.60923C17.5 9.4759 17.45 9.35923 17.35 9.25923L15.95 7.85923C15.85 7.75923 15.7333 7.70923 15.6 7.70923C15.4667 7.70923 15.35 7.75923 15.25 7.85923L14.15 8.90923L16.3 11.0592ZM5.5 21.7092C4.95 21.7092 4.47917 21.5134 4.0875 21.1217C3.69583 20.7301 3.5 20.2592 3.5 19.7092V5.70923C3.5 5.15923 3.69583 4.6884 4.0875 4.29673C4.47917 3.90506 4.95 3.70923 5.5 3.70923H9.7C9.91667 3.10923 10.2792 2.6259 10.7875 2.25923C11.2958 1.89256 11.8667 1.70923 12.5 1.70923C13.1333 1.70923 13.7042 1.89256 14.2125 2.25923C14.7208 2.6259 15.0833 3.10923 15.3 3.70923H19.5C20.05 3.70923 20.5208 3.90506 20.9125 4.29673C21.3042 4.6884 21.5 5.15923 21.5 5.70923V19.7092C21.5 20.2592 21.3042 20.7301 20.9125 21.1217C20.5208 21.5134 20.05 21.7092 19.5 21.7092H5.5ZM5.5 19.7092H19.5V5.70923H5.5V19.7092ZM12.5 4.95923C12.7167 4.95923 12.8958 4.8884 13.0375 4.74673C13.1792 4.60506 13.25 4.4259 13.25 4.20923C13.25 3.99256 13.1792 3.8134 13.0375 3.67173C12.8958 3.53006 12.7167 3.45923 12.5 3.45923C12.2833 3.45923 12.1042 3.53006 11.9625 3.67173C11.8208 3.8134 11.75 3.99256 11.75 4.20923C11.75 4.4259 11.8208 4.60506 11.9625 4.74673C12.1042 4.8884 12.2833 4.95923 12.5 4.95923Z" fill="#727272"/>
    </g>
</svg>