<svg width="16" height="16" viewBox="0 0 16 16" fill="none" xmlns="http://www.w3.org/2000/svg">
    <path d="M7.99998 1.33325C4.32665 1.33325 1.33331 4.32659 1.33331 7.99992C1.33331 11.6733 4.32665 14.6666 7.99998 14.6666C11.6733 14.6666 14.6666 11.6733 14.6666 7.99992C14.6666 4.32659 11.6733 1.33325 7.99998 1.33325ZM11.1866 6.46659L7.40665 10.2466C7.31331 10.3399 7.18665 10.3933 7.05331 10.3933C6.91998 10.3933 6.79331 10.3399 6.69998 10.2466L4.81331 8.35992C4.61998 8.16659 4.61998 7.84659 4.81331 7.65325C5.00665 7.45992 5.32665 7.45992 5.51998 7.65325L7.05331 9.18659L10.48 5.75992C10.6733 5.56659 10.9933 5.56659 11.1866 5.75992C11.38 5.95325 11.38 6.26659 11.1866 6.46659Z" fill="#4361EE"/>
</svg>
