<svg width="23" height="27" viewBox="0 0 23 27" fill="none" xmlns="http://www.w3.org/2000/svg">
    <path fill-rule="evenodd" clip-rule="evenodd" d="M0.299805 24.7002C0.299805 23.8165 1.01615 23.1002 1.8998 23.1002H21.0998C21.9835 23.1002 22.6998 23.8165 22.6998 24.7002C22.6998 25.5839 21.9835 26.3002 21.0998 26.3002H1.8998C1.01615 26.3002 0.299805 25.5839 0.299805 24.7002ZM5.56843 8.23157C4.9436 7.60673 4.9436 6.59366 5.56843 5.96883L10.3684 1.16882C10.6685 0.868767 11.0755 0.700195 11.4998 0.700195C11.9242 0.700195 12.3311 0.868767 12.6312 1.16882L17.4312 5.96882C18.056 6.59366 18.056 7.60673 17.4312 8.23157C16.8063 8.85641 15.7933 8.85641 15.1684 8.23157L13.0998 6.16294V18.3002C13.0998 19.1839 12.3835 19.9002 11.4998 19.9002C10.6161 19.9002 9.8998 19.1839 9.8998 18.3002L9.8998 6.16294L7.83118 8.23157C7.20634 8.85641 6.19327 8.85641 5.56843 8.23157Z" fill="#111827"/>
</svg>
