<svg width="14" height="14" viewBox="0 0 14 14" fill="none" xmlns="http://www.w3.org/2000/svg">
<path d="M7 0C6.64867 0 6.30303 0.387879 6.30303 0.939394C6.30303 1.49091 6.64867 1.87879 7 1.87879C7.35133 1.87879 7.69697 1.49091 7.69697 0.939394C7.69697 0.387879 7.35133 0 7 0ZM3.84997 0.0901515L3.36215 0.334091C3.81949 1.24879 4.91882 2.05561 5.8527 2.58991L6.28285 8.18182H6.72727V5.06061H7.27273V8.18182H7.71715L8.1473 2.58991C9.08118 2.05561 10.1805 1.24879 10.6378 0.334091L10.15 0.0901515C9.5467 0.996212 8.7897 1.57948 7.98839 1.84076C7.767 2.1903 7.41667 2.42424 7 2.42424C6.58333 2.42424 6.23303 2.1903 6.01161 1.84073C5.2103 1.57952 4.4533 0.996212 3.84997 0.0901515ZM4.36364 8.72727V11.6364H0V14H14V13.0909H9.63636V8.72727H4.36364Z" fill="black"/>
</svg>
