<svg width="15" height="14" viewBox="0 0 15 14" fill="none" xmlns="http://www.w3.org/2000/svg">
<path d="M6.02104 8.56481L2.29868 12.8H1.48097L5.76837 7.92157L6.03966 7.61288L5.78934 7.28695L1.11454 1.2H4.28163L7.19056 5.02887L7.56062 5.51595L7.96434 5.05639L11.3521 1.2H12.1677L8.20709 5.70746L7.9373 6.0145L8.18456 6.33996L13.0923 12.8H10.0261L6.79314 8.59035L6.42262 8.1079L6.02104 8.56481ZM9.97611 12.325L10.1262 12.5204H10.3726H11.5626H12.5704L11.9607 11.7179L4.28102 1.60991L4.13096 1.4124H3.8829H2.6061H1.59137L2.20962 2.21703L9.97611 12.325Z" stroke="#777777"/>
</svg>
